<?xml version="1.0" encoding="UTF-8" standalone="no"?>
<!DOCTYPE svg PUBLIC "-//W3C//DTD SVG 1.1//EN" "http://www.w3.org/Graphics/SVG/1.1/DTD/svg11.dtd">
<!-- 由 Microsoft Visio, SVG Export 生成 mem.svg Page-1 -->
<svg xmlns="http://www.w3.org/2000/svg" xmlns:xlink="http://www.w3.org/1999/xlink" xmlns:ev="http://www.w3.org/2001/xml-events"
		xmlns:v="http://schemas.microsoft.com/visio/2003/SVGExtensions/" width="11.6929in" height="8.26772in"
		viewBox="0 0 841.89 595.276" xml:space="preserve" color-interpolation-filters="sRGB" class="st12">
	<v:documentProperties v:langID="2052" v:metric="true" v:viewMarkup="false">
		<v:userDefs>
			<v:ud v:nameU="msvSubprocessMaster" v:prompt="" v:val="VT4(Rectangle)"/>
			<v:ud v:nameU="msvNoAutoConnect" v:val="VT0(1):26"/>
		</v:userDefs>
	</v:documentProperties>

	<style type="text/css">
	<![CDATA[
		.st1 {fill:none;stroke:#000000;stroke-width:1}
		.st2 {fill:#000000;font-family:Calibri;font-size:1.5em}
		.st3 {fill:#ffffff;stroke:#000000;stroke-width:1}
		.st4 {fill:#ffffff;stroke:#000000;stroke-width:0.75}
		.st5 {font-family:Bahnschrift SemiLight SemiConde;font-size:1em}
		.st6 {fill:#000000;font-family:Calibri;font-size:1.00001em}
		.st7 {fill:#feffff;font-family:Calibri;font-size:0.833336em}
		.st8 {fill:#000000;font-family:Calibri;font-size:1.99999em}
		.st9 {stroke:#000000;stroke-linecap:round;stroke-linejoin:round;stroke-width:1}
		.st10 {fill:none;stroke:none;stroke-width:1}
		.st11 {fill:#000000;font-family:Calibri;font-size:1.16666em}
		.st12 {fill:none;fill-rule:evenodd;font-size:12px;overflow:visible;stroke-linecap:square;stroke-miterlimit:3}
	]]>
	</style>

	<g v:mID="0" v:index="1" v:groupContext="foregroundPage">
		<v:userDefs>
			<v:ud v:nameU="msvThemeOrder" v:val="VT0(0):26"/>
		</v:userDefs>
		<title>页-1</title>
		<v:pageProperties v:drawingScale="0.0393701" v:pageScale="0.0393701" v:drawingUnits="24" v:shadowOffsetX="8.50394"
				v:shadowOffsetY="-8.50394"/>
		<g id="shape3-1" v:mID="3" v:groupContext="shape" transform="translate(179.627,-516.787)">
			<title>工作表.3</title>
			<desc>Core</desc>
			<v:textBlock v:margins="rect(4,4,4,4)" v:tabSpace="42.5197"/>
			<v:textRect cx="167.351" cy="565.031" width="334.71" height="60.4882"/>
			<rect x="0" y="534.787" width="334.701" height="60.4882" class="st1"/>
			<text x="150.19" y="570.43" class="st2" v:langID="2052"><v:paragraph v:horizAlign="1"/><v:tabList/>Core</text>		</g>
		<g id="shape4-4" v:mID="4" v:groupContext="shape" transform="translate(276.863,-343.484)">
			<title>工作表.4</title>
			<desc>AddrTranslate</desc>
			<v:textBlock v:margins="rect(4,4,4,4)" v:tabSpace="42.5197" v:verticalAlign="0"/>
			<v:textRect cx="70.1153" cy="518.546" width="140.24" height="153.46"/>
			<rect x="0" y="441.816" width="140.231" height="153.46" class="st3"/>
			<text x="18.36" y="462.02" class="st2" v:langID="2052"><v:paragraph v:horizAlign="1"/><v:tabList/>AddrTranslate</text>		</g>
		<g id="shape6-7" v:mID="6" v:groupContext="shape" transform="translate(308.613,-389.969)">
			<title>工作表.6</title>
			<desc>TLB</desc>
			<v:textBlock v:margins="rect(4,4,4,4)" v:tabSpace="42.5197"/>
			<v:textRect cx="38.365" cy="565.031" width="76.73" height="60.4882"/>
			<rect x="0" y="534.787" width="76.7299" height="60.4882" class="st4"/>
			<text x="25.3" y="570.43" class="st2" v:langID="2052"><v:paragraph v:horizAlign="1"/><v:tabList/>TLB</text>		</g>
		<g id="shape7-10" v:mID="7" v:groupContext="shape" transform="translate(350.947,-294.535)">
			<title>工作表.7</title>
			<desc>SB</desc>
			<v:textBlock v:margins="rect(4,4,4,4)" v:tabSpace="42.5197"/>
			<v:textRect cx="33.0733" cy="579.4" width="66.15" height="31.7503"/>
			<rect x="0" y="563.525" width="66.1465" height="31.7503" class="st3"/>
			<text x="24.04" y="584.8" class="st2" v:langID="2052"><v:paragraph v:horizAlign="1"/><v:tabList/>SB</text>		</g>
		<g id="shape10-13" v:mID="10" v:groupContext="shape" transform="translate(446.198,-268.077)">
			<title>六边形</title>
			<desc>D$</desc>
			<v:userDefs>
				<v:ud v:nameU="visVersion" v:val="VT0(15):26"/>
			</v:userDefs>
			<v:textBlock v:margins="rect(4,4,4,4)" v:tabSpace="42.5197"/>
			<v:textRect cx="51.5943" cy="542.358" width="103.19" height="105.834"/>
			<path d="M-12.9 366.67 L-12.9 584.69 L-95.45 584.69 L-95.45 632.32 L69.65 632.32 L69.14 367.2 L-12.9 366.67 Z"
					class="st3"/>
			<text x="20.28" y="548" class="st2" v:langID="2052"><v:paragraph/><v:tabList/>D<tspan class="st5">$</tspan></text>		</g>
		<g id="shape16-17" v:mID="16" v:groupContext="shape" transform="translate(350.947,-158.273)">
			<title>工作表.16</title>
			<rect x="0" y="535.744" width="76.7299" height="59.5319" class="st3"/>
		</g>
		<g id="shape17-19" v:mID="17" v:groupContext="shape" transform="translate(438.26,-158.273)">
			<title>工作表.17</title>
			<rect x="0" y="535.744" width="76.7299" height="59.5319" class="st3"/>
		</g>
		<g id="shape18-21" v:mID="18" v:groupContext="shape" transform="translate(355.709,-195.315)">
			<title>工作表.18</title>
			<desc>WB buffer</desc>
			<v:textBlock v:margins="rect(4,4,4,4)" v:tabSpace="42.5197"/>
			<v:textRect cx="33.9993" cy="586.941" width="68" height="16.6689"/>
			<rect x="0" y="578.607" width="67.9986" height="16.6689" class="st4"/>
			<text x="9" y="590.54" class="st6" v:langID="2052"><v:paragraph v:horizAlign="1"/><v:tabList/>WB buffer</text>		</g>
		<g id="shape20-24" v:mID="20" v:groupContext="shape" transform="translate(104.882,-276.896)">
			<title>六边形.20</title>
			<desc>I</desc>
			<v:userDefs>
				<v:ud v:nameU="visVersion" v:val="VT0(15):26"/>
			</v:userDefs>
			<v:textBlock v:margins="rect(4,4,4,4)" v:tabSpace="42.5197"/>
			<v:textRect cx="51.5943" cy="542.358" width="103.19" height="105.834"/>
			<path d="M154.78 375.23 L72.23 375.23 L72.23 639.81 L233.46 641.14 L232.17 545.89 L156.07 545.89 L154.78 375.23 Z"
					class="st3"/>
			<text x="96.67" y="545.36" class="st7" v:langID="2052"><v:paragraph v:horizAlign="2"/><v:tabList/>I</text>		</g>
		<g id="shape22-27" v:mID="22" v:groupContext="shape" transform="translate(260.988,-158.935)">
			<title>工作表.22</title>
			<rect x="0" y="535.744" width="76.7299" height="59.5319" class="st3"/>
		</g>
		<g id="shape23-29" v:mID="23" v:groupContext="shape" transform="translate(176.982,-158.935)">
			<title>工作表.23</title>
			<rect x="0" y="535.744" width="76.7299" height="59.5319" class="st3"/>
		</g>
		<g id="shape24-31" v:mID="24" v:groupContext="shape" transform="translate(177.114,-85.0394)">
			<title>工作表.24</title>
			<desc>CrossBar</desc>
			<v:textBlock v:margins="rect(4,4,4,4)" v:tabSpace="42.5197"/>
			<v:textRect cx="168.938" cy="565.51" width="337.88" height="59.5319"/>
			<rect x="0" y="535.744" width="337.876" height="59.5319" class="st3"/>
			<text x="126.18" y="572.71" class="st8" v:langID="2052"><v:paragraph v:horizAlign="1"/><v:tabList/>CrossBar</text>		</g>
		<g id="shape25-34" v:mID="25" v:groupContext="shape" transform="translate(942.52,510.236) rotate(90)">
			<title>工作表.25</title>
			<path d="M0 595.28 L36.85 595.28" class="st9"/>
		</g>
		<g id="shape26-37" v:mID="26" v:groupContext="shape" transform="translate(935.433,510.236) rotate(90)">
			<title>工作表.26</title>
			<path d="M0 595.28 L36.85 595.28" class="st9"/>
		</g>
		<g id="shape27-40" v:mID="27" v:groupContext="shape" transform="translate(949.606,510.236) rotate(90)">
			<title>工作表.27</title>
			<path d="M0 595.28 L36.85 595.28" class="st9"/>
		</g>
		<g id="shape28-43" v:mID="28" v:groupContext="shape" transform="translate(320.315,-24.8898)">
			<title>工作表.28</title>
			<desc>AXI</desc>
			<v:textBlock v:margins="rect(4,4,4,4)" v:tabSpace="42.5197"/>
			<v:textRect cx="26.9291" cy="585.276" width="53.86" height="20"/>
			<rect x="0" y="575.276" width="53.8583" height="20" class="st10"/>
			<text x="17.48" y="589.48" class="st11" v:langID="2052"><v:paragraph v:horizAlign="1"/><v:tabList/>AXI</text>		</g>
		<g id="shape30-46" v:mID="30" v:groupContext="shape" transform="translate(229.33,-268.077)">
			<title>工作表.30</title>
			<desc>I$</desc>
			<v:textBlock v:margins="rect(4,4,4,4)" v:tabSpace="42.5197"/>
			<v:textRect cx="26.9291" cy="585.276" width="53.86" height="20"/>
			<rect x="0" y="575.276" width="53.8583" height="20" class="st10"/>
			<text x="20.1" y="590.68" class="st2" v:langID="2052"><v:paragraph v:horizAlign="1"/><v:tabList/>I$</text>		</g>
		<g id="shape31-49" v:mID="31" v:groupContext="shape" transform="translate(814.969,363.623) rotate(90.0342)">
			<title>工作表.31</title>
			<path d="M0 595.28 L13.54 595.28" class="st9"/>
		</g>
		<g id="shape33-52" v:mID="33" v:groupContext="shape" transform="translate(893.04,380.787) rotate(91.6247)">
			<title>工作表.33</title>
			<path d="M0 595.28 L12.9 595.28" class="st9"/>
		</g>
		<g id="shape34-55" v:mID="34" v:groupContext="shape" transform="translate(985.039,364.241) rotate(90)">
			<title>工作表.34</title>
			<path d="M0 595.28 L13.23 595.28" class="st9"/>
		</g>
		<g id="shape35-58" v:mID="35" v:groupContext="shape" transform="translate(1070.08,364.241) rotate(90)">
			<title>工作表.35</title>
			<path d="M0 595.28 L13.23 595.28" class="st9"/>
		</g>
		<g id="shape36-61" v:mID="36" v:groupContext="shape" transform="translate(813.543,436.341) rotate(90)">
			<title>工作表.36</title>
			<path d="M0 595.28 L14.36 595.28" class="st9"/>
		</g>
		<g id="shape37-64" v:mID="37" v:groupContext="shape" transform="translate(807.874,436.341) rotate(90)">
			<title>工作表.37</title>
			<path d="M0 595.28 L14.36 595.28" class="st9"/>
		</g>
		<g id="shape38-67" v:mID="38" v:groupContext="shape" transform="translate(819.213,436.341) rotate(90)">
			<title>工作表.38</title>
			<path d="M0 595.28 L14.36 595.28" class="st9"/>
		</g>
		<g id="shape39-70" v:mID="39" v:groupContext="shape" transform="translate(895.748,436.341) rotate(90)">
			<title>工作表.39</title>
			<path d="M0 595.28 L14.36 595.28" class="st9"/>
		</g>
		<g id="shape40-73" v:mID="40" v:groupContext="shape" transform="translate(890.079,436.341) rotate(90)">
			<title>工作表.40</title>
			<path d="M0 595.28 L14.36 595.28" class="st9"/>
		</g>
		<g id="shape41-76" v:mID="41" v:groupContext="shape" transform="translate(900,436.341) rotate(90)">
			<title>工作表.41</title>
			<path d="M0 595.28 L14.36 595.28" class="st9"/>
		</g>
		<g id="shape42-79" v:mID="42" v:groupContext="shape" transform="translate(985.039,437.002) rotate(90)">
			<title>工作表.42</title>
			<path d="M0 595.28 L13.7 595.28" class="st9"/>
		</g>
		<g id="shape43-82" v:mID="43" v:groupContext="shape" transform="translate(980.787,437.002) rotate(90)">
			<title>工作表.43</title>
			<path d="M0 595.28 L13.7 595.28" class="st9"/>
		</g>
		<g id="shape44-85" v:mID="44" v:groupContext="shape" transform="translate(989.899,437.002) rotate(90)">
			<title>工作表.44</title>
			<path d="M0 595.28 L13.7 595.28" class="st9"/>
		</g>
		<g id="shape46-88" v:mID="46" v:groupContext="shape" transform="translate(1072.91,437.002) rotate(90)">
			<title>工作表.46</title>
			<path d="M0 595.28 L13.7 595.28" class="st9"/>
		</g>
		<g id="shape47-91" v:mID="47" v:groupContext="shape" transform="translate(1068.66,437.002) rotate(90)">
			<title>工作表.47</title>
			<path d="M0 595.28 L13.7 595.28" class="st9"/>
		</g>
		<g id="shape48-94" v:mID="48" v:groupContext="shape" transform="translate(1077.17,437.002) rotate(90)">
			<title>工作表.48</title>
			<path d="M0 595.28 L13.7 595.28" class="st9"/>
		</g>
	</g>
</svg>
